<?xml version="1.0" encoding="utf-8"?>
<!-- Generator: Adobe Illustrator 23.1.0, SVG Export Plug-In . SVG Version: 6.00 Build 0)  -->
<svg version="1.1" xmlns="http://www.w3.org/2000/svg" xmlns:xlink="http://www.w3.org/1999/xlink" x="0px" y="0px" width="657.1px"
	 height="657.5px" viewBox="0 0 657.1 657.5" style="enable-background:new 0 0 657.1 657.5;" xml:space="preserve">
<style type="text/css">
	.st0{display:none;}
	.st1{display:inline;fill:#EFE1E1;}
	.st2{fill:#447CBF;}
	.st3{fill:#4BBB88;}
	.st4{fill:#D4E0F3;}
	.st5{display:inline;}
	.st6{fill:#010101;}
	.st7{display:inline;fill:#010101;}
	.st8{font-family:'ArialRoundedMTBold';}
	.st9{font-size:73.5884px;}
	.st10{font-size:61.1797px;}
	.st11{display:inline;fill:#D4E0F3;}
	.st12{display:inline;fill:#4BBB88;}
	.st13{display:inline;fill:#447CBF;}
	.st14{fill:#262F3E;}
	.st15{fill:#F8991D;}
</style>
<g id="base" class="st0">
	<rect class="st1" width="657.5" height="657.5"/>
</g>
<g id="Layer_5">
	<rect x="786.5" y="159" class="st2" width="63.2" height="63.2"/>
	<rect x="786.5" y="229.5" class="st3" width="63.2" height="63.2"/>
	<rect x="786.5" y="300.5" class="st4" width="63.2" height="63.2"/>
</g>
<g id="Software_Development" class="st0">
	<g class="st5">
		<path class="st4" d="M142.1,41.6H92.5c-28.7-0.1-52.1,23.1-52.2,51.8c0,0.2,0,0.4,0,0.6v296.5h49.6V94
			c-0.2-28.7,22.9-52.2,51.6-52.4C141.6,41.6,141.8,41.6,142.1,41.6z"/>
		<path class="st4" d="M89.8,424.2v-18.4H40.3v18.4c0,29.1,23.1,53.5,52.2,53.5h49.6C112.9,477.7,89.8,453.3,89.8,424.2z"/>
		<g>
			<g>
				<rect x="134.2" y="119" class="st3" width="230.4" height="20"/>
			</g>
		</g>
		<g>
			<g>
				<rect x="219.6" y="159" class="st3" width="145.1" height="20"/>
			</g>
		</g>
		<g>
			<g>
				<rect x="219.6" y="199.1" class="st3" width="145.1" height="20"/>
			</g>
		</g>
		<g>
			<g>
				<rect x="134.2" y="78.9" class="st3" width="162.2" height="20"/>
			</g>
		</g>
		<g>
			<g>
				<rect x="304.5" y="78.9" class="st3" width="20" height="20"/>
			</g>
		</g>
		<g>
			<g>
				<rect x="318.1" y="427.6" class="st6" width="20" height="20"/>
			</g>
		</g>
		<g>
			<g>
				<path class="st3" d="M434.9,86l-14.2-14.2l-20,20c-3.9,3.9-3.9,10.3,0,14.2l20,20l14.2-14.2l-13-13L434.9,86z"/>
			</g>
		</g>
		<g>
			<g>
				<path class="st3" d="M515.1,91.8l-20-20L480.9,86l13,13l-13,13l14.2,14.2l20-20C519,102.1,519,95.8,515.1,91.8z"/>
			</g>
		</g>
		<g>
			<g>
				
					<rect x="426.2" y="88.9" transform="matrix(0.3165 -0.9486 0.9486 0.3165 219.1484 501.9843)" class="st3" width="63.4" height="20"/>
			</g>
		</g>
		<g>
			<g>
				<path class="st2" d="M37.5,86.9v340.7c0,33.2,26.9,60.1,60.1,60.1h124.1l-40.1,80.2h-53.9c-16.6,0-30.1,13.5-30.1,30.1
					s13.5,30.1,30.1,30.1h400.8c16.6,0,30.1-13.5,30.1-30.1s-13.5-30.1-30.1-30.1h-53.9l-40.1-80.2h124.1
					c33.2,0,60.1-26.9,60.1-60.1v-30.1V283.7v-0.1V86.9c0-33.2-26.9-60.1-60.1-60.1h-461C64.5,26.8,37.6,53.7,37.5,86.9z
					 M598.7,264.5c-26.7-14.9-59-15.9-86.6-2.7c-47,22.5-66.9,78.8-44.5,125.8h-57.7l-3-9.2c-0.9-2.8-3-5.1-5.8-6.2l-32.9-13.3
					v-23.6l32.8-13.3c2.7-1.1,4.8-3.4,5.8-6.2l9.5-29.2c0.9-2.8,0.6-5.9-1-8.4L396.6,248l13.9-19.1l34.4,8.5
					c2.9,0.7,5.9,0.1,8.3-1.6l24.8-18c2.4-1.7,3.9-4.5,4.1-7.4l2.5-35.3l22.5-7.3l22.8,27.1c1.9,2.3,4.7,3.6,7.7,3.6h30.7
					c3,0,5.8-1.3,7.7-3.6l22.8-27.1V264.5z M598.7,387.5H490.5c-17.3-26.6-15.8-61.3,3.8-86.3c25.3-32.4,72.1-38.2,104.5-12.9V387.5
					z M528.6,587.9c5.5,0,10,4.5,10,10s-4.5,10-10,10H127.7c-5.5,0-10-4.5-10-10s4.5-10,10-10H528.6z M244.2,487.7h168l40.1,80.2
					H204.1L244.2,487.7z M57.6,407.6h427.6h0.1h113.5v20c0,22.1-17.9,40.1-40.1,40.1h-461c-22.1,0-40.1-17.9-40.1-40.1V407.6z
					 M57.6,86.9c0-22.1,17.9-40.1,40.1-40.1h461c22.1,0,40.1,17.9,40.1,40.1v59.8l-0.2-0.1c-3.9-1.2-8.1,0-10.8,3.1l-24.1,28.7
					h-21.4l-24.1-28.7c-2.6-3.1-6.9-4.3-10.8-3.1L472,158.1c-3.9,1.3-6.6,4.8-6.9,8.8l-2.6,37.4l-17.2,12.5l-36.4-9
					c-4-1-8.1,0.5-10.5,3.8l-21.8,30.1c-2.4,3.3-2.6,7.7-0.4,11.2l19.9,31.9l-6.6,20.3l-34.8,14.1c-3.8,1.5-6.3,5.2-6.3,9.3v37.2
					c0,4.1,2.5,7.7,6.3,9.3l31.3,12.7H57.6V86.9z"/>
			</g>
		</g>
		<g>
			<path class="st3" d="M192.4,308.8h-10.5v16c0,2.3-0.5,4-1.6,5.2s-2.4,1.8-4.1,1.8c-1.7,0-3.1-0.6-4.2-1.8
				c-1.1-1.2-1.6-2.9-1.6-5.2v-43.6c0-2.5,0.6-4.3,1.7-5.4c1.2-1.1,3-1.6,5.5-1.6h14.7c4.3,0,7.7,0.3,10,1c2.3,0.6,4.3,1.7,6,3.2
				c1.7,1.5,3,3.3,3.8,5.5c0.9,2.2,1.3,4.6,1.3,7.3c0,5.8-1.8,10.1-5.3,13.1C204.7,307.3,199.4,308.8,192.4,308.8z M189.6,282.9
				h-7.7v17.3h7.7c2.7,0,5-0.3,6.8-0.8c1.8-0.6,3.2-1.5,4.1-2.8c1-1.3,1.4-3,1.4-5.1c0-2.5-0.7-4.5-2.2-6.1
				C198.1,283.7,194.7,282.9,189.6,282.9z"/>
			<path class="st3" d="M235.7,324.8v-17.9l-13.8-21.4c-1.2-1.9-2.1-3.4-2.6-4.5c-0.5-1.1-0.8-2-0.8-2.8c0-1.3,0.5-2.4,1.5-3.4
				c1-1,2.3-1.4,3.8-1.4c1.6,0,2.8,0.4,3.6,1.3s2,2.7,3.6,5.3l10.6,17.2l10.7-17.2c0.6-1.1,1.2-1.9,1.6-2.7c0.4-0.7,0.9-1.4,1.4-2
				c0.5-0.6,1.1-1.1,1.8-1.4c0.6-0.3,1.4-0.5,2.4-0.5c1.4,0,2.6,0.5,3.6,1.4c1,0.9,1.4,2,1.4,3.3c0,1-0.2,2-0.7,3
				c-0.5,1-1.3,2.4-2.5,4.2l-14.2,21.7v17.9c0,2.3-0.5,4.1-1.6,5.2c-1.1,1.2-2.5,1.7-4.1,1.7c-1.7,0-3.1-0.6-4.1-1.7
				S235.7,327.2,235.7,324.8z"/>
		</g>
	</g>
</g>
<g id="Layer_1" class="st0">
	<g class="st5">
		<path class="st4" d="M97.5,387c-12.2-0.1-21.9-12.6-21.8-28v-30.2h-21V359c0,0.1,0,0.2,0,0.3c0.1,15.3,9.9,27.7,22.1,27.6h21
			C97.7,387,97.6,387,97.5,387z"/>
		<path class="st4" d="M140.6,568.2c-12.2-0.1-21.9-12.6-21.8-28V382.1h-21v158.2c0,0.1,0,0.2,0,0.3c0.1,15.3,9.9,27.7,22.1,27.6h21
			C140.8,568.2,140.7,568.2,140.6,568.2z"/>
		<g>
			<g>
				<g>
					<g>
						<path class="st3" d="M403.1,432.4l-11.8,11.8c-1.6,1.6-3.9,2-5.9,1c-4.6-2.3-9.4-4.3-14.4-5.9c-2.1-0.7-3.5-2.7-3.5-4.9
							l0-16.7c0-8.8-7.1-15.9-15.9-15.9l-31.8,0c-8.8,0-15.9,7.1-15.9,15.9l0,16.7c0,2.2-1.4,4.2-3.5,4.9c-4.9,1.6-9.7,3.6-14.4,5.9
							c-2,1-4.4,0.6-6-1l-11.8-11.8c-6.2-6.2-16.3-6.2-22.5,0l-22.5,22.5c-6.2,6.2-6.2,16.3,0,22.5l11.8,11.8c1.6,1.6,2,3.9,1,5.9
							c-2.3,4.6-4.3,9.5-5.9,14.4c-0.7,2.1-2.7,3.5-4.9,3.5l-16.7,0c-8.8,0-15.9,7.1-15.9,15.9l0,31.8c0,8.8,7.1,15.9,15.9,15.9
							l24.6,0c2.9,0,5.3-2.5,5.2-5.4c0-2.9-2.3-5.2-5.2-5.2l-24.6,0c-2.9,0-5.3-2.4-5.3-5.3v-31.8c0-2.9,2.4-5.3,5.3-5.3l16.7,0
							c6.8,0,12.8-4.3,15-10.8c1.5-4.5,3.3-8.8,5.4-13c3-6.1,1.8-13.4-3-18.2l-11.8-11.8c-2.1-2.1-2.1-5.4,0-7.5l22.5-22.5
							c2.1-2.1,5.4-2.1,7.5,0l11.8,11.8c4.8,4.8,12.1,6,18.2,3c4.2-2.1,8.5-3.9,13-5.4c6.4-2.2,10.8-8.2,10.8-15l0-16.7
							c0-2.9,2.4-5.3,5.3-5.3l31.8,0c2.9,0,5.3,2.4,5.3,5.3l0,16.7c0,6.8,4.3,12.8,10.8,15c4.5,1.5,8.8,3.3,13,5.4
							c6.1,3,13.4,1.8,18.2-3l11.8-11.8c2.1-2.1,5.4-2.1,7.5,0l22.5,22.5c2.1,2.1,2.1,5.4,0,7.5l-11.8,11.8c-4.8,4.8-6,12.1-3,18.2
							c2.1,4.2,3.9,8.5,5.4,13c2.2,6.4,8.2,10.8,15,10.8l16.7,0c2.9,0,5.3,2.4,5.3,5.3l0,31.8c0,2.9-2.4,5.3-5.3,5.3l-24.6,0
							c-2.9,0-5.3,2.3-5.4,5.2c0,2.9,2.3,5.3,5.2,5.4c0.1,0,0.1,0,0.2,0l24.6,0c8.8,0,15.9-7.1,15.9-15.9l0-31.8
							c0-8.8-7.1-15.9-15.9-15.9l-16.7,0c-2.2,0-4.2-1.4-4.9-3.5c-1.6-4.9-3.6-9.7-5.9-14.4c-1-2-0.6-4.4,1-6l11.8-11.8
							c6.2-6.2,6.2-16.3,0-22.5l-22.5-22.5C419.3,426.2,409.3,426.2,403.1,432.4z"/>
					</g>
				</g>
				<g>
					<g>
						<path class="st3" d="M335.6,475.9c-38,0-68.8,30.8-68.9,68.9c0.1,2.9,2.5,5.3,5.4,5.2c2.9,0,5.2-2.4,5.2-5.2
							c-0.2-32.2,25.7-58.4,57.9-58.7s58.4,25.7,58.7,57.9c0,0.3,0,0.5,0,0.8c-0.1,2.9,2.3,5.3,5.2,5.4c2.9,0.1,5.3-2.3,5.4-5.2
							c0-0.1,0-0.1,0-0.2C404.5,506.7,373.7,475.9,335.6,475.9z"/>
					</g>
				</g>
			</g>
			<path class="st2" d="M69.6,316.3h17.4v-64.7c0-14.6,12-26.6,26.6-26.6h26.7c3.6-10.2,12.2-20.5,20.9-26.8
				c4.4-3.2,9.2-5.7,14.3-7.6c-8-9.5-12.9-21.8-12.9-35.1v-34.6v-14.9c0-9.4,3.9-18,10.1-24.2c6.2-6.2,14.7-10,24.2-10h66.6
				c4.6,0,8.4,3.8,8.4,8.4v40.8v34.6c0,13.4-4.9,25.6-12.9,35.1c8.7,3.3,16.5,8.5,22.8,15.1c10.3,10.8,16.6,25.4,16.6,41.3v69.4H360
				v-69.4c0-15.8,6.2-30.2,16.2-41c6.3-6.8,14.3-12.2,23.1-15.4c-8-9.5-12.9-21.8-12.9-35.1v-49.5c0-9.4,3.9-18,10-24.2
				c6.2-6.2,14.8-10,24.2-10h40.7c9.4,0,18,3.9,24.2,10c6.2,6.2,10,14.8,10,24.2v49.5c0,13.4-4.9,25.6-12.9,35.1
				c5.1,1.9,10,4.5,14.3,7.6c8.7,6.3,17.2,16.6,20.8,26.8h26.7c7.3,0,14,3,18.8,7.8s7.8,11.5,7.8,18.8v64.7h17.4
				c14.1,0,25.6,11.5,25.6,25.6v25.6c0,14.1-11.5,25.6-25.6,25.6h-17.4v161.3c0,14.1-11.5,25.7-25.6,25.7H112.7
				c-14.1,0-25.6-11.5-25.6-25.7V393.2H69.6c-14.1,0-25.6-11.5-25.6-25.6V342C44,327.9,55.5,316.3,69.6,316.3L69.6,316.3z
				 M179.3,112.4h75.7V88.3h-58.2c-4.8,0-9.2,2-12.3,5.1c-3.2,3.2-5.2,7.6-5.2,12.4L179.3,112.4L179.3,112.4z M255.1,129.1h-75.7
				v26.3c0,10.4,4.3,19.9,11.1,26.7c6.9,6.9,16.3,11.1,26.7,11.1c10.4,0,19.9-4.3,26.7-11.1c6.9-6.9,11.1-16.3,11.1-26.7
				L255.1,129.1L255.1,129.1z M478.9,141.1c-12.3,1.8-32.5,1.7-49.3-13.1c-5.8,3.4-15.2,7.3-26.5,6.3v21.2
				c0,10.4,4.3,19.9,11.1,26.7c6.9,6.9,16.3,11.1,26.7,11.1c10.4,0,19.9-4.3,26.7-11.1c6.9-6.9,11.1-16.3,11.1-26.7V141.1z
				 M403.1,117.5c7.9,1.2,16-1.5,22-6.7c3.5-3,8.7-2.6,11.7,0.9c13.7,15.7,32.7,14.4,42,12.6v-18.4c0-4.8-2-9.2-5.1-12.4
				c-3.2-3.2-7.6-5.1-12.4-5.1h-40.7c-4.8,0-9.2,2-12.4,5.1c-3.2,3.2-5.1,7.6-5.1,12.4L403.1,117.5L403.1,117.5z M191.9,203.7
				c-7.7,0.8-14.9,3.6-20.9,8c-4.9,3.5-9,8.1-12.1,13.3h55.8c7.4,0,14,3,18.8,7.8c4.8,4.8,7.8,11.5,7.8,18.8v64.7h40.3v-69.4
				c0-11.5-4.5-22.1-11.9-29.8c-7-7.4-16.5-12.3-27.1-13.4c-7.6,4-16.2,6.3-25.4,6.3C208.1,210,199.5,207.7,191.9,203.7L191.9,203.7
				z M415.7,203.7c-10.7,1.1-20.3,6.1-27.3,13.6c-7.3,7.8-11.7,18.2-11.7,29.6v69.4h40.3v-20.2c0-4.6,3.8-8.4,8.4-8.4
				c4.6,0,8.3,3.8,8.3,8.4v20.2h120.9v-64.7c0-2.7-1.1-5.2-2.9-7c-1.8-1.8-4.3-2.9-7-2.9h-101c-2.7,0-5.2,1.1-7,2.9
				c-1.8,1.8-2.9,4.3-2.9,7v12.3c0,4.6-3.7,8.4-8.3,8.4c-4.6,0-8.4-3.8-8.4-8.4v-12.3c0-7.3,3-14,7.8-18.8
				c4.8-4.8,11.5-7.8,18.8-7.8h55.8c-3.1-5.2-7.2-9.7-12.1-13.3c-6-4.4-13.2-7.2-20.9-8c-7.6,4-16.2,6.3-25.3,6.3
				C431.9,210,423.2,207.7,415.7,203.7L415.7,203.7z M214.7,241.6h-101c-5.5,0-9.9,4.5-9.9,9.9v64.7h120.8v-64.7
				c0-2.7-1.1-5.2-2.9-7C219.9,242.8,217.4,241.6,214.7,241.6z M482.2,563.4h63.4c4.9,0,8.9-4,8.9-8.9V393.2h0H103.8v161.3
				c0,4.9,4,8.9,8.9,8.9h63.4 M192.8,563.4H264 M394.2,563.4h71.2 M280.7,563.4h96.8 M588.6,333H69.6c-4.9,0-8.9,4-8.9,8.9v25.6
				c0,4.9,4,8.9,8.9,8.9h518.9c4.9,0,8.9-4,8.9-8.9V342C597.5,337.1,593.5,333,588.6,333L588.6,333z"/>
			<path class="st3" d="M192.6,279h-57.8c-5.2,0-9.5-4.3-9.5-9.5v0c0-5.2,4.3-9.5,9.5-9.5h57.8c5.2,0,9.5,4.3,9.5,9.5v0
				C202.1,274.7,197.8,279,192.6,279z"/>
			<path class="st3" d="M524.4,279h-57.8c-5.2,0-9.5-4.3-9.5-9.5v0c0-5.2,4.3-9.5,9.5-9.5h57.8c5.2,0,9.5,4.3,9.5,9.5v0
				C533.8,274.7,529.6,279,524.4,279z"/>
		</g>
	</g>
</g>
<g id="Layer_3" class="st0">
	<g class="st5">
		<g>
			<g>
				<path class="st3" d="M0,311.6L1.2,360c0,20,16.2,36.1,36.1,36.1l38.4,0c5.1,0,9.6,3.2,11.2,8c3.7,11.2,8.2,22.1,13.5,32.7
					c2.2,4.5,1.3,10-2.3,13.6l-26.8,26.8c-14.1,14.1-14.1,37,0,51.1l51.1,51.1c14.1,14.1,37,14.1,51.1,0l26.8-26.8
					c3.5-3.6,9-4.6,13.5-2.4c10.6,5.3,21.5,9.8,32.7,13.5c4.8,1.6,8,6.2,8,11.2l0,38c0,19.9,16.2,36.1,36.1,36.1l71.7-0.1
					c19.9,0,36.1-16.2,36.1-36.1l0-38c0-5.1,3.2-9.6,8-11.3c11.2-3.7,22.1-8.2,32.7-13.5c4.5-2.2,10-1.3,13.6,2.3l26.8,26.8
					c14.1,14.1,37,14.1,51.1,0l51.1-51.1c14.1-14.1,14.1-37,0-51.1L555,450.4c-3.6-3.5-4.6-9-2.4-13.5c5.3-10.6,9.8-21.5,13.5-32.7
					c1.6-4.8,6.2-8,11.3-8l38,0c19.9,0,36.1-16.2,36.1-36.1v-71.8c0-19.9-16.2-36.1-36.1-36.1l-55.8-0.1
					c-6.6,0.1-11.9,5.6-11.8,12.2c0.1,6.5,5.3,11.7,11.8,11.8l55.9,0c6.7,0,12,5.4,12,12v72c0,6.6-5.4,12-12,12l-38,0
					c-15.4,0-29.2,9.8-34.1,24.4c-3.4,10.1-7.4,19.9-12.2,29.4c-6.8,13.8-4.1,30.3,6.9,41.1l26.7,26.6c4.7,4.7,4.7,12.4,0,17.1
					l-51.1,50.8c-4.7,4.7-12.3,4.7-17,0L469.9,535c-10.9-10.9-27.5-13.7-41.3-6.9c-9.6,4.7-19.4,8.8-29.6,12.1
					c-14.6,4.9-24.5,18.6-24.5,33.9l0,38.9c0,6.7-5.4,12-12,12l-72,0c-6.6,0-12-5.4-12-12l0-38c0-15.4-9.8-29.2-24.4-34.1
					c-10.1-3.4-19.9-7.4-29.4-12.2c-13.8-6.8-30.3-4.1-41.1,6.9L157,562.4c-4.7,4.7-12.4,4.7-17.1,0l-50.8-51.1
					c-4.7-4.7-4.7-12.3,0-17l26.7-26.8c10.9-10.9,13.7-27.5,6.9-41.3c-4.7-9.6-8.8-19.4-12.1-29.6c-4.9-14.6-18.6-24.5-33.9-24.5
					l-39.1,0c-6.7,0-12-5.4-12-12l-2.8-47.7"/>
			</g>
		</g>
		<g>
			<g>
				<path class="st3" d="M326.7,480.7c86.5-0.1,156.6-70.2,156.7-156.7c-0.1-6.7-5.6-12-12.3-11.8c-6.5,0.1-11.7,5.3-11.8,11.8
					c0.5,73.2-58.5,133-131.7,133.4c-73.2,0.5-133-58.5-133.4-131.7c0-0.6,0-1.2,0-1.8c0.1-6.7-5.2-12.1-11.8-12.3
					c-6.7-0.1-12.1,5.2-12.3,11.8c0,0.1,0,0.3,0,0.4C170.1,410.5,240.2,480.6,326.7,480.7z"/>
			</g>
		</g>
	</g>
	<path class="st7" d="M568.6,190c19.3-13.5,32-36,32-61.4c0-41.5-33.6-75.1-75.1-75.1c-41.5,0-75.1,33.6-75.1,75.1
		c0,25.4,12.6,47.9,32,61.4c-16.5,5.7-31.6,14.6-44.4,26c-17.6-15-38.2-26.4-60.9-33.2c27.4-16.7,45.9-47,45.9-81.4
		c0-52.6-42.5-95.1-95.1-95.1S233,49,233,101.4c0,34.5,18.3,64.8,45.9,81.4c-22.4,6.8-42.8,18.1-60.2,32.8
		c-12.7-11.2-27.6-19.9-43.8-25.5c19.3-13.5,32-36,32-61.4c0-41.5-33.6-75.1-75.1-75.1c-41.5,0-75.1,33.6-75.1,75.1
		c0,25.4,12.6,47.9,32,61.4C37.1,207.9,0,257,0,314.6v8.6c0,0.3,0.3,0.5,0.5,0.5h159.1h34.5c1.1-70.4,60-127.1,132.5-127.1
		s131.4,56.7,132.5,127.1h37.6H657c0.3,0,0.5-0.3,0.5-0.5v-8.6C657.2,256.9,620.3,207.8,568.6,190z M77.1,128.5
		c0-29.9,24.3-54.2,54.2-54.2c29.9,0,54.2,24.3,54.2,54.2c0,29.5-23.8,53.6-53.2,54.2c-0.4,0-0.7,0-1,0c-0.4,0-0.7,0-1,0
		C100.9,182.2,77.1,158.1,77.1,128.5z M163.3,302.8H21.1c5.9-55.4,52.7-98.9,109.5-99.3c0.3,0,0.5,0,0.8,0c0.3,0,0.5,0,0.8,0
		c27.1,0.1,51.8,10.1,70.9,26.4C184.3,250.2,170.4,275.2,163.3,302.8z M253.5,101.4c0-41,33.3-74.3,74.3-74.3s74.3,33.3,74.3,74.3
		c0,39.5-31.1,71.9-70,74.2c-1.4,0-2.9,0-4.3,0c-1.4,0-2.9,0-4.3,0C284.6,173.3,253.5,141,253.5,101.4z M471.3,128.5
		c0-29.9,24.3-54.2,54.2-54.2s54.2,24.3,54.2,54.2c0,29.5-23.8,53.6-53.2,54.2c-0.4,0-0.7,0-1,0s-0.7,0-1,0
		C495,182.2,471.3,158.1,471.3,128.5z M492.6,302.8c-7.2-27.4-20.8-52-39.4-72.3c19.3-16.7,44.2-26.7,71.5-26.9c0.3,0,0.5,0,0.8,0
		s0.5,0,0.8,0c56.8,0.4,103.7,43.8,109.5,99.3H492.6z"/>
</g>
<g id="data_center" class="st0">
</g>
<g id="google" class="st0">
	<g class="st5">
		<path class="st4" d="M169.3,440.9c-1.1,0-2.1-0.2-3.1-0.6c-55-5.8-96.8-31.3-96.8-86.8c0-59.9,48.4-108.4,108.2-108.4
			c20.5-49.3,71.6-91.9,123.4-79.3l8.7-6.5C251.3,145,191.2,175.3,168,230.8c-67.2,0-121.7,54.5-121.7,121.7
			c0,62.2,44.9,96.4,106.8,103c1.1,0.5,8.6,0.6,9.8,0.6l54.3,0.9l2.8-13.9L169.3,440.9z"/>
		<g>
			<path class="st2" d="M537.8,210.2c-3.5-69.1-61-124.3-130.8-124.3c-44.4,0.1-85.7,22.5-109.9,59.7
				c-58.3-14.4-118.5,15.9-141.6,71.3c-67.2,0-121.7,54.5-121.7,121.7c0,62.2,47,114.4,108.8,121c1.1,0.5,2.3,0.7,3.5,0.7h59.4
				c15.5,65.4,81.1,105.8,146.5,90.3c44.7-10.6,79.7-45.6,90.3-90.3h50.1c1.1,0,2.3-0.2,3.3-0.6c72-7,124.8-71.1,117.7-143.1
				C608.9,270.2,580.1,229.7,537.8,210.2L537.8,210.2z M323.9,535.2c-56.9,0-102.9-46.1-102.9-102.9S267,329.3,323.9,329.3
				s102.9,46.1,102.9,102.9C426.8,489,380.7,535.1,323.9,535.2z M565.2,405.8c-19.2,20.7-45.5,33.3-73.6,35.5
				c-0.6,0-1.2,0.2-1.8,0.3h-44.6c0.2-3.1,0.4-6.2,0.4-9.4c0-67.2-54.5-121.7-121.7-121.7S202.2,365,202.2,432.2
				c0,3.1,0.1,6.3,0.4,9.4h-53.8c-0.6-0.2-1.3-0.3-1.9-0.4c-56.7-4.7-98.8-54.4-94.1-111.1c4.4-53.4,49.1-94.5,102.7-94.5
				c1.8,0,3.7,0.1,5.8,0.2c4.2,0.2,8-2.3,9.4-6.2c18.4-52.3,75-80.6,127.9-64.1c4.2,1.3,8.7-0.5,10.9-4.3
				c30.8-53.8,99.4-72.5,153.3-41.7c34.8,19.9,56.4,56.9,56.6,97c0,3.8,2.3,7.2,5.8,8.6c57.5,23.3,85.3,88.7,62,146.2
				C582,384.1,574.5,395.7,565.2,405.8z"/>
			<path class="st3" d="M270.5,416.2l-0.6,0.6c6.9-24.1,28.9-40.7,54-40.8c5.2,0,9.4-4.2,9.4-9.4s-4.2-9.4-9.4-9.4
				c-36.6,0.1-67.8,26.5-73.9,62.7l-3.8-3.8c-3.7-3.7-9.6-3.7-13.2,0c-3.7,3.7-3.7,9.6,0,13.2l18.7,18.7c3.7,3.7,9.6,3.7,13.2,0
				c0,0,0,0,0,0l18.7-18.7c3.7-3.7,3.7-9.6,0-13.2C280,412.6,274.1,412.6,270.5,416.2L270.5,416.2z"/>
			<path class="st3" d="M414.7,448.2c-3.7,3.7-9.6,3.7-13.2,0l-3.8-3.8c-6,36.1-37.2,62.6-73.9,62.6c-5.2,0-9.4-4.2-9.4-9.4
				s4.2-9.4,9.4-9.4c25.1,0,47.1-16.7,54-40.7l-0.6,0.6c-3.7,3.7-9.6,3.7-13.2,0s-3.7-9.6,0-13.2l18.7-18.7c3.7-3.7,9.6-3.7,13.2,0
				l18.7,18.7C418.4,438.6,418.4,444.5,414.7,448.2z"/>
			<path class="st3" d="M192.8,469.7h-65.5c-5.2,0-9.4,4.2-9.4,9.4s4.2,9.4,9.4,9.4h65.5c5.2,0,9.4-4.2,9.4-9.4
				S198,469.7,192.8,469.7z"/>
			<path class="st3" d="M539.1,469.7h-84.2c-5.2,0-9.4,4.2-9.4,9.4s4.2,9.4,9.4,9.4h84.2c5.2,0,9.4-4.2,9.4-9.4
				S544.3,469.7,539.1,469.7z"/>
		</g>
		<g>
			<path class="st3" d="M417.1,114.6c-7.4,0.3-14.7,1.2-21.9,2.8l4.3,19.4c6-1.3,12.1-2.1,18.3-2.3L417.1,114.6z"/>
			<path class="st3" d="M384.9,141.3l-7.2-18.6c-19.7,7.7-37,20.5-50.2,37.1l15.6,12.4C354.1,158.4,368.5,147.7,384.9,141.3z"/>
		</g>
	</g>
</g>
<g id="microsoft_copy" class="st0">
	<g class="st5">
		<path class="st4" d="M169.3,440.9c-1.1,0-2.1-0.2-3.1-0.6c-55-5.8-96.8-31.3-96.8-86.8c0-59.9,48.4-108.4,108.2-108.4
			c20.5-49.3,71.6-91.9,123.4-79.3l8.7-6.5C251.3,145,191.2,175.3,168,230.8c-67.2,0-121.7,54.5-121.7,121.7
			c0,62.2,44.9,96.4,106.8,103c1.1,0.5,8.6,0.6,9.8,0.6l54.3,0.9l2.8-13.9L169.3,440.9z"/>
		<g>
			<path class="st2" d="M442.3,460.3h50.1c1.1,0,2.3-0.2,3.3-0.6c72-7,124.8-71.1,117.7-143.1c-4.5-46.4-33.3-86.9-75.6-106.3v0
				c-3.5-69.1-61-124.3-130.8-124.3c-44.4,0.1-85.7,22.5-109.9,59.7c-58.3-14.4-118.5,15.9-141.6,71.3
				c-67.2,0-121.7,54.5-121.7,121.7c0,62.2,47,114.4,108.8,121c1.1,0.5,2.3,0.7,3.5,0.7h59.4 M202.6,441.6h-53.8
				c-0.6-0.2-1.3-0.3-1.9-0.4c-56.7-4.7-98.8-54.4-94.1-111.1c4.4-53.4,49.1-94.5,102.7-94.5c1.8,0,3.7,0.1,5.8,0.2
				c4.2,0.2,8-2.3,9.4-6.2c18.4-52.3,75-80.6,127.9-64.1c4.2,1.3,8.7-0.5,10.9-4.3c30.8-53.8,99.4-72.5,153.3-41.7
				c34.8,19.9,56.4,56.9,56.6,97c0,3.8,2.3,7.2,5.8,8.6c57.5,23.3,85.3,88.7,62,146.2c-5.1,12.7-12.6,24.4-21.9,34.4
				c-19.2,20.7-45.5,33.3-73.6,35.5c-0.6,0-1.2,0.2-1.8,0.3h-44.6"/>
		</g>
		<g>
			<path class="st3" d="M417.1,114.6c-7.4,0.3-14.7,1.2-21.9,2.8l4.3,19.4c6-1.3,12.1-2.1,18.3-2.3L417.1,114.6z"/>
			<path class="st3" d="M384.9,141.3l-7.2-18.6c-19.7,7.7-37,20.5-50.2,37.1l15.6,12.4C354.1,158.4,368.5,147.7,384.9,141.3z"/>
		</g>
	</g>
	<g class="st5">
		<g>
			<g>
				<path class="st3" d="M378.5,220.6c-0.5-0.4-1.2-0.6-1.9-0.6l-47,6.3c-1.2,0.2-2.1,1.1-2.1,2.3v41c0,1.3,1.2,2.3,2.5,2.3h46.9
					c1.3,0,2.5-1,2.5-2.3v-47.3C379.4,221.7,379,221,378.5,220.6z M374.7,267.3h-42.6v-36.6l42.6-5.6L374.7,267.3L374.7,267.3z"/>
			</g>
		</g>
		<g>
			<g>
				<path class="st3" d="M322.2,277.5c-0.4-0.4-0.9-0.7-1.6-0.7l-44,0.1c-1.3,0-2.2,1-2.2,2.3v35c0,1.2,0.8,2.2,2,2.3l44.1,5.6
					c0.1,0,0.2,0,0.3,0c0.6,0,1-0.2,1.4-0.6c0.5-0.4,0.7-1.1,0.7-1.8v-40.7C322.8,278.5,322.7,277.9,322.2,277.5z M318.1,317.2
					l-39.1-5v-30.6l39.1-0.1V317.2L318.1,317.2z"/>
			</g>
		</g>
		<g>
			<g>
				<path class="st3" d="M377,276.8l-47-0.2c0,0,0,0,0,0c-0.6,0-1.3,0.3-1.7,0.8c-0.4,0.4-0.8,1.1-0.8,1.7V321c0,1.2,1,2.2,2.1,2.3
					l46.9,6.3c0.1,0,0.2,0,0.3,0c0.6,0,1.2-0.2,1.6-0.6c0.5-0.4,0.9-1.1,0.9-1.8v-48.1C379.4,277.9,378.3,276.8,377,276.8z
					 M374.7,324.7l-42.6-5.7v-37.5l42.6,0.1V324.7z"/>
			</g>
		</g>
		<g>
			<g>
				<path class="st3" d="M322.1,228c-0.5-0.4-1.1-0.6-1.7-0.6l-44.4,5.7c-1.2,0.1-2.1,1.1-2.1,2.3v34.2c0,1.3,1.2,2.3,2.5,2.3h44.3
					c1.3,0,2.1-1,2.1-2.3v-39.9C322.8,229.1,322.6,228.5,322.1,228z M318.1,267.3h-39.7v-29.8l39.7-5.1V267.3z"/>
			</g>
		</g>
	</g>
	<text transform="matrix(1 0 0 1 214.7214 406.9084)" class="st5"><tspan x="0" y="0" class="st3 st8 st9">A</tspan><tspan x="52.9" y="0" class="st3 st8 st10">ZURE</tspan></text>
</g>
<g id="Layer_9" class="st0">
	<path class="st11" d="M152.8,85.6H97.6c-32-0.1-58.1,25.7-58.2,57.7c0,0.2,0,0.5,0,0.7v347.5h55.2V144.1
		c-0.2-32,25.5-58.2,57.5-58.4C152.4,85.6,152.6,85.6,152.8,85.6z"/>
	<path class="st11" d="M94.6,512.1v-20.5H39.4v20.5c0,32.5,25.7,59.7,58.2,59.7h55.2C120.3,571.8,94.6,544.6,94.6,512.1z"/>
	<path class="st12" d="M198.3,441.1c-2.1,0-4.1-0.7-5.8-2.2L134,389.2c-2-1.7-3.2-4.2-3.2-6.9c0-2.6,1.2-5.2,3.2-6.9l58.4-49.7
		c3.8-3.2,9.5-2.8,12.7,1c3.2,3.8,2.8,9.5-1,12.7l-50.3,42.9l50.3,42.9c3.8,3.2,4.3,8.9,1,12.7C203.4,440,200.8,441.1,198.3,441.1z"
		/>
	<path class="st12" d="M461.9,441.1c-2.6,0-5.1-1.1-6.9-3.2c-3.2-3.8-2.8-9.5,1-12.7l50.3-42.9L456,339.5c-3.8-3.2-4.3-8.9-1-12.7
		c3.2-3.8,8.9-4.3,12.7-1l58.4,49.7c2,1.7,3.2,4.2,3.2,6.9c0,2.6-1.2,5.2-3.2,6.9L467.7,439C466,440.4,463.9,441.1,461.9,441.1z"/>
	<path class="st13" d="M552.8,591.1H96.3c-35.9,0-65-29.2-65-65V138.6c0-35.9,29.2-65,65-65h456.6c35.9,0,65,29.2,65,65v387.5
		C617.9,562,588.7,591.1,552.8,591.1z M96.3,92.9c-25.2,0-45.7,20.5-45.7,45.7v387.5c0,25.2,20.5,45.7,45.7,45.7h456.6
		c25.2,0,45.7-20.5,45.7-45.7V138.6c0-25.2-20.5-45.7-45.7-45.7H96.3z"/>
	<path class="st13" d="M608.2,228.7H40.9c-5.4,0-9.7-4.3-9.7-9.7c0-5.3,4.3-9.7,9.7-9.7h567.3c5.4,0,9.7,4.3,9.7,9.7
		C617.9,224.3,613.5,228.7,608.2,228.7z"/>
	<path class="st12" d="M239.4,178.7c-14.8,0-26.9-12.1-26.9-26.9c0-14.8,12.1-26.9,26.9-26.9c14.8,0,26.9,12.1,26.9,26.9
		C266.3,166.7,254.2,178.7,239.4,178.7z M239.4,142c-5.5,0-9.9,4.4-9.9,9.9c0,5.5,4.4,9.9,9.9,9.9c5.5,0,9.9-4.4,9.9-9.9
		C249.3,146.4,244.8,142,239.4,142z"/>
	<path class="st12" d="M156.8,178.5c-14.8,0-26.9-12.1-26.9-26.9c0-14.8,12.1-26.9,26.9-26.9c14.8,0,26.9,12.1,26.9,26.9
		C183.7,166.4,171.6,178.5,156.8,178.5z M156.8,141.7c-5.5,0-9.9,4.4-9.9,9.9c0,5.5,4.4,9.9,9.9,9.9c5.5,0,9.9-4.4,9.9-9.9
		C166.7,146.1,162.2,141.7,156.8,141.7z"/>
	<path class="st12" d="M322,179c-14.8,0-26.9-12.1-26.9-26.9c0-14.8,12.1-26.9,26.9-26.9c14.8,0,26.9,12.1,26.9,26.9
		C348.9,166.9,336.8,179,322,179z M322,142.2c-5.5,0-9.9,4.4-9.9,9.9c0,5.5,4.4,9.9,9.9,9.9c5.5,0,9.9-4.4,9.9-9.9
		C331.9,146.7,327.4,142.2,322,142.2z"/>
	<g class="st5">
		<path class="st3" d="M240.7,385.9h-9.6v14.6c0,2.1-0.5,3.7-1.5,4.7c-1,1.1-2.2,1.6-3.7,1.6c-1.6,0-2.8-0.5-3.8-1.6
			c-1-1.1-1.4-2.6-1.4-4.7v-39.7c0-2.3,0.5-3.9,1.6-4.9c1.1-1,2.7-1.5,5-1.5h13.4c4,0,7,0.3,9.1,0.9c2.1,0.6,3.9,1.6,5.5,2.9
			s2.7,3,3.5,5c0.8,2,1.2,4.2,1.2,6.6c0,5.2-1.6,9.2-4.8,11.9C251.9,384.6,247.1,385.9,240.7,385.9z M238.1,362.3h-7v15.7h7
			c2.5,0,4.5-0.3,6.2-0.8c1.7-0.5,2.9-1.4,3.8-2.5c0.9-1.2,1.3-2.7,1.3-4.6c0-2.3-0.7-4.1-2-5.6
			C245.9,363.1,242.8,362.3,238.1,362.3z"/>
		<path class="st3" d="M276.9,408.1l0.9-2.1l-11.8-29.7c-0.7-1.7-1.1-3-1.1-3.7c0-0.8,0.2-1.6,0.6-2.3c0.4-0.7,1-1.3,1.7-1.7
			c0.7-0.4,1.5-0.6,2.3-0.6c1.4,0,2.4,0.4,3.1,1.3c0.7,0.9,1.3,2.1,1.9,3.8l8.1,23.6l7.7-22c0.6-1.8,1.2-3.2,1.7-4.2
			c0.5-1,1-1.7,1.6-2c0.6-0.4,1.3-0.5,2.3-0.5c0.7,0,1.4,0.2,2.1,0.6c0.7,0.4,1.2,0.9,1.5,1.6c0.4,0.7,0.5,1.3,0.5,2.1
			c-0.1,0.4-0.2,1.1-0.5,1.9c-0.2,0.8-0.5,1.7-0.8,2.5l-12.5,32.7c-1.1,2.9-2.1,5.1-3.2,6.8c-1,1.6-2.4,2.9-4.1,3.8
			c-1.7,0.9-4,1.3-6.9,1.3c-2.8,0-4.9-0.3-6.3-0.9c-1.4-0.6-2.1-1.7-2.1-3.3c0-1.1,0.3-2,1-2.5s1.7-0.9,3-0.9c0.5,0,1,0.1,1.5,0.2
			c0.6,0.1,1.1,0.2,1.6,0.2c1.1,0,2-0.2,2.6-0.5c0.6-0.3,1.2-0.9,1.7-1.7C275.6,410.8,276.2,409.6,276.9,408.1z"/>
		<path class="st3" d="M307.5,368.7h1.1v-5.8c0-1.5,0-2.8,0.1-3.6c0.1-0.9,0.3-1.6,0.7-2.3c0.4-0.7,0.9-1.2,1.6-1.6
			c0.7-0.4,1.5-0.6,2.4-0.6c1.2,0,2.3,0.5,3.3,1.4c0.7,0.6,1.1,1.4,1.2,2.2c0.2,0.9,0.3,2.1,0.3,3.7v6.5h3.5c1.4,0,2.4,0.3,3.1,1
			c0.7,0.6,1.1,1.5,1.1,2.5c0,1.3-0.5,2.2-1.5,2.7c-1,0.5-2.5,0.8-4.4,0.8h-1.8v17.6c0,1.5,0.1,2.7,0.2,3.5c0.1,0.8,0.4,1.5,0.8,2
			c0.5,0.5,1.2,0.8,2.2,0.8c0.6,0,1.3-0.1,2.3-0.3c1-0.2,1.7-0.3,2.2-0.3c0.8,0,1.5,0.3,2.1,0.9c0.6,0.6,0.9,1.4,0.9,2.3
			c0,1.5-0.8,2.7-2.5,3.5c-1.7,0.8-4.1,1.2-7.3,1.2c-3,0-5.3-0.5-6.8-1.5c-1.5-1-2.6-2.4-3-4.2c-0.5-1.8-0.7-4.2-0.7-7.1v-18.4h-1.3
			c-1.4,0-2.4-0.3-3.2-1c-0.7-0.7-1.1-1.5-1.1-2.5c0-1,0.4-1.8,1.1-2.5C305,369,306.1,368.7,307.5,368.7z"/>
		<path class="st3" d="M341.9,359.4v14.2c1.2-1.4,2.4-2.5,3.6-3.3c1.2-0.8,2.4-1.4,3.8-1.8c1.4-0.4,2.9-0.6,4.5-0.6
			c2.4,0,4.6,0.5,6.5,1.5c1.9,1,3.4,2.5,4.4,4.5c0.7,1.1,1.1,2.4,1.4,3.8c0.2,1.4,0.4,3.1,0.4,4.9V401c0,1.9-0.4,3.4-1.3,4.4
			c-0.9,1-2,1.5-3.5,1.5c-3.2,0-4.7-1.9-4.7-5.8v-16.2c0-3.1-0.5-5.4-1.4-7.1c-0.9-1.7-2.6-2.5-5.2-2.5c-1.7,0-3.3,0.5-4.6,1.5
			c-1.4,1-2.4,2.3-3.1,4c-0.5,1.4-0.8,4-0.8,7.6V401c0,1.9-0.4,3.3-1.3,4.3c-0.9,1-2,1.5-3.6,1.5c-3.2,0-4.7-1.9-4.7-5.8v-41.6
			c0-1.9,0.4-3.4,1.2-4.4s2-1.5,3.5-1.5c1.5,0,2.7,0.5,3.6,1.5C341.4,356.1,341.9,357.5,341.9,359.4z"/>
		<path class="st3" d="M411.9,387.4c0,2.9-0.4,5.5-1.3,7.9c-0.9,2.4-2.2,4.5-3.9,6.2c-1.7,1.7-3.7,3.1-6,4c-2.3,0.9-5,1.4-7.9,1.4
			c-2.9,0-5.5-0.5-7.8-1.4c-2.3-0.9-4.3-2.3-6-4s-3-3.8-3.9-6.2c-0.9-2.4-1.3-5-1.3-7.9c0-2.9,0.4-5.6,1.3-8
			c0.9-2.4,2.2-4.5,3.8-6.2c1.7-1.7,3.7-3,6-4s5-1.4,7.8-1.4c2.9,0,5.5,0.5,7.9,1.4c2.4,0.9,4.4,2.3,6.1,4c1.7,1.7,3,3.8,3.8,6.2
			C411.4,381.9,411.9,384.5,411.9,387.4z M402.2,387.4c0-3.9-0.9-7-2.6-9.1c-1.7-2.2-4-3.3-6.9-3.3c-1.9,0-3.5,0.5-5,1.5
			c-1.4,1-2.5,2.4-3.3,4.3c-0.8,1.9-1.2,4.1-1.2,6.6c0,2.5,0.4,4.7,1.1,6.6c0.8,1.9,1.9,3.3,3.3,4.3c1.4,1,3.1,1.5,5,1.5
			c2.9,0,5.2-1.1,6.9-3.3C401.4,394.3,402.2,391.2,402.2,387.4z"/>
		<path class="st3" d="M428.1,373.2v1.2c1.7-2.2,3.5-3.9,5.5-4.9c2-1,4.3-1.6,6.9-1.6c2.5,0,4.8,0.6,6.8,1.7c2,1.1,3.5,2.7,4.5,4.7
			c0.6,1.2,1,2.4,1.2,3.8s0.3,3.1,0.3,5.2V401c0,1.9-0.4,3.4-1.3,4.4c-0.9,1-2,1.5-3.4,1.5c-1.4,0-2.6-0.5-3.5-1.5
			c-0.9-1-1.3-2.4-1.3-4.3v-16c0-3.2-0.4-5.6-1.3-7.3c-0.9-1.7-2.6-2.5-5.3-2.5c-1.7,0-3.3,0.5-4.7,1.5c-1.4,1-2.4,2.4-3.1,4.2
			c-0.5,1.4-0.7,4.1-0.7,8v12c0,1.9-0.5,3.4-1.4,4.4c-0.9,1-2.1,1.5-3.5,1.5c-1.4,0-2.5-0.5-3.4-1.5c-0.9-1-1.3-2.4-1.3-4.3v-27.7
			c0-1.8,0.4-3.2,1.2-4.1c0.8-0.9,1.9-1.4,3.3-1.4c0.8,0,1.6,0.2,2.3,0.6c0.7,0.4,1.2,1,1.6,1.8C427.9,371.1,428.1,372,428.1,373.2z
			"/>
	</g>
</g>
<g id="Theming_integration" class="st0">
	<rect x="126.3" y="268.8" class="st11" width="41.7" height="243.6"/>
	<g class="st5">
		<path class="st3" d="M141.1,568.7H75.5c-5.2,0-9.4,4.2-9.4,9.4s4.2,9.4,9.4,9.4h65.6c5.2,0,9.4-4.2,9.4-9.4
			S146.2,568.7,141.1,568.7z"/>
		<path class="st3" d="M178.6,568.7h-9.4c-5.2,0-9.4,4.2-9.4,9.4s4.2,9.4,9.4,9.4h9.4c5.2,0,9.4-4.2,9.4-9.4
			S183.7,568.7,178.6,568.7z"/>
		<path class="st2" d="M581.5,44H225.4c-20.7,0-37.5,16.8-37.5,37.5v131.2h-56.2c-31,0-56.2,25.2-56.2,56.2v271.7H47.4
			c-5.2,0-9.4,4.2-9.4,9.4v28.1c0,20.7,16.8,37.5,37.5,37.5h487.2c20.7,0,37.5-16.8,37.5-37.5v-28.1c0-5.2-4.2-9.4-9.4-9.4h-28.1
			V428.1h18.7c20.7,0,37.5-16.8,37.5-37.5V81.4C618.9,60.7,602.2,44,581.5,44z M225.4,428.1h281.1v84.3H131.7V268.8h56.2v121.8
			C187.9,411.3,204.7,428.1,225.4,428.1z M94.2,268.8c0-20.7,16.8-37.5,37.5-37.5h56.2v18.7h-65.6c-5.2,0-9.4,4.2-9.4,9.4v262.4
			c0,5.2,4.2,9.4,9.4,9.4h393.5c5.2,0,9.4-4.2,9.4-9.4v-93.7H544v112.4H94.2V268.8z M343.6,559.3l-3.1,9.4h-42.7l-3.1-9.4H343.6z
			 M581.5,559.3v18.7c0,10.3-8.4,18.7-18.7,18.7H75.5c-10.3,0-18.7-8.4-18.7-18.7v-18.7h218.1l7.2,21.7c1.3,3.8,4.9,6.4,8.9,6.4
			h56.2c4,0,7.6-2.6,8.9-6.4l7.2-21.7H581.5z M600.2,390.7c0,10.3-8.4,18.7-18.7,18.7H225.4c-10.3,0-18.7-8.4-18.7-18.7V118.9h393.5
			V390.7z M600.2,100.2H206.7V81.4c0-10.3,8.4-18.7,18.7-18.7h356.1c10.3,0,18.7,8.4,18.7,18.7V100.2z"/>
		<circle class="st3" cx="225.4" cy="81.4" r="9.4"/>
		<circle class="st3" cx="253.5" cy="81.4" r="9.4"/>
		<circle class="st3" cx="281.6" cy="81.4" r="9.4"/>
		<path class="st3" d="M422.2,137.7H234.8c-5.2,0-9.4,4.2-9.4,9.4v84.3c0,5.2,4.2,9.4,9.4,9.4h187.4c5.2,0,9.4-4.2,9.4-9.4V147
			C431.5,141.9,427.4,137.7,422.2,137.7z M412.8,222H244.1v-65.6h168.7V222z"/>
		<path class="st3" d="M422.2,250.1H234.8c-5.2,0-9.4,4.2-9.4,9.4s4.2,9.4,9.4,9.4h187.4c5.2,0,9.4-4.2,9.4-9.4
			S427.4,250.1,422.2,250.1z"/>
		<path class="st3" d="M422.2,278.2H234.8c-5.2,0-9.4,4.2-9.4,9.4s4.2,9.4,9.4,9.4h187.4c5.2,0,9.4-4.2,9.4-9.4
			S427.4,278.2,422.2,278.2z"/>
		<path class="st3" d="M422.2,343.8H234.8c-5.2,0-9.4,4.2-9.4,9.4c0,5.2,4.2,9.4,9.4,9.4h187.4c5.2,0,9.4-4.2,9.4-9.4
			C431.5,348,427.4,343.8,422.2,343.8z"/>
		<path class="st3" d="M328.5,371.9h-93.7c-5.2,0-9.4,4.2-9.4,9.4s4.2,9.4,9.4,9.4h93.7c5.2,0,9.4-4.2,9.4-9.4
			S333.6,371.9,328.5,371.9z"/>
		<path class="st3" d="M234.8,325.1h112.4c5.2,0,9.4-4.2,9.4-9.4s-4.2-9.4-9.4-9.4H234.8c-5.2,0-9.4,4.2-9.4,9.4
			S229.6,325.1,234.8,325.1z"/>
		<path class="st3" d="M384.7,325.1c5.2,0,9.4-4.2,9.4-9.4s-4.2-9.4-9.4-9.4h-9.4c-5.2,0-9.4,4.2-9.4,9.4s4.2,9.4,9.4,9.4H384.7z"/>
		<path class="st3" d="M572.1,137.7H450.3c-5.2,0-9.4,4.2-9.4,9.4v234.3c0,5.2,4.2,9.4,9.4,9.4h121.8c5.2,0,9.4-4.2,9.4-9.4V147
			C581.5,141.9,577.3,137.7,572.1,137.7z M562.7,371.9H459.7V156.4h103.1V371.9z"/>
		<path class="st3" d="M366,371.9h-9.4c-5.2,0-9.4,4.2-9.4,9.4s4.2,9.4,9.4,9.4h9.4c5.2,0,9.4-4.2,9.4-9.4S371.1,371.9,366,371.9z"
			/>
	</g>
</g>
<g id="open_source" class="st0">
	<rect x="128.9" y="519.9" class="st11" width="22.7" height="79.8"/>
	<path class="st11" d="M181.2,204.2H163c-10.5-0.1-19.1,11.8-19.1,26.6c0,0.1,0,0.2,0,0.3v152.2H162V231.1
		c-0.1-14.7,8.4-26.8,18.9-26.9C181,204.2,181.1,204.2,181.2,204.2z"/>
	<path class="st13" d="M603.4,467.3l-71.9-71.9c-1.8-1.8-4.4-2.9-7-2.9H130c-2.6,0-5.1,1-7,2.9l-71.9,71.9c-7.7,7.7-7.7,20.2,0,27.9
		c3.7,3.7,8.7,5.8,13.9,5.8h188.4c18.3,0.1,35.9-7.2,48.8-20.2l54.6-54.6v173.5H149.7c-5.4,0-9.9-4.4-9.9-9.9v-69h-19.7v69
		c0,16.3,13.3,29.6,29.6,29.6h355.1c16.3,0,29.6-13.3,29.6-29.6v-69h-19.7v69c0,5.4-4.4,9.9-9.9,9.9H376.6V426.2l54.6,54.6
		c12.9,13,30.5,20.3,48.8,20.2h109.5c10.9,0,19.7-8.8,19.7-19.7C609.2,476.1,607.1,471,603.4,467.3z M288.3,466.8
		c-9.2,9.3-21.8,14.5-34.9,14.4l-188.4,0l69-69h208.8L288.3,466.8z M480,481.3c-13.1,0-25.6-5.2-34.9-14.4l-54.6-54.6h129.9l69,69
		H480z"/>
	<path class="st13" d="M149.7,234.7c0-10.9,8.8-19.7,19.7-19.7h98.6v49.3c0,5.4,4.4,9.9,9.9,9.9h49.3v108.5H347V264.3
		c0-2.6-1-5.1-2.9-7l-59.2-59.2c-1.8-1.8-4.4-2.9-7-2.9H169.4c-21.8,0-39.4,17.7-39.5,39.5v148h19.7V234.7z M287.8,228.9l25.5,25.5
		h-25.5V228.9z"/>
	<path class="st12" d="M169.4,234.7h59.2v19.7h-59.2V234.7z"/>
	<path class="st12" d="M208.9,284h59.2v19.7h-59.2V284z"/>
	<path class="st12" d="M287.8,284h19.7v19.7h-19.7V284z"/>
	<path class="st12" d="M268.1,323.5h39.5v19.7h-39.5V323.5z"/>
	<path class="st12" d="M169.4,323.5h78.9v19.7h-78.9V323.5z"/>
	<path class="st12" d="M169.4,362.9h59.2v19.7h-59.2V362.9z"/>
	<path class="st12" d="M248.4,362.9h39.5v19.7h-39.5V362.9z"/>
	<path class="st13" d="M327.3,126.2c0-10.9,8.8-19.7,19.7-19.7h98.6v49.3c0,5.4,4.4,9.9,9.9,9.9h49.3v177.5
		c0,10.9-8.8,19.7-19.7,19.7H366.7v19.7h118.4c21.8,0,39.4-17.7,39.5-39.5V155.8c0-2.6-1-5.1-2.9-7l-59.2-59.2
		c-1.8-1.8-4.4-2.9-7-2.9H347c-21.8,0-39.4,17.7-39.5,39.5v78.9h19.7V126.2z M465.4,120.4l25.5,25.5h-25.5V120.4z"/>
	<path class="st12" d="M366.7,126.2h39.5v19.7h-39.5V126.2z"/>
	<path class="st12" d="M406.2,175.5h39.5v19.7h-39.5V175.5z"/>
	<path class="st12" d="M366.7,175.5h19.7v19.7h-19.7V175.5z"/>
	<path class="st12" d="M465.4,175.5h19.7v19.7h-19.7V175.5z"/>
	<path class="st12" d="M445.6,215h39.5v19.7h-39.5V215z"/>
	<path class="st12" d="M366.7,215h59.2v19.7h-59.2V215z"/>
	<path class="st12" d="M406.2,254.4h59.2v19.7h-59.2V254.4z"/>
	<path class="st12" d="M435.8,293.9h39.5v19.7h-39.5V293.9z"/>
	<path class="st12" d="M139.9,136.1h19.7v39.5h-19.7V136.1z"/>
	<path class="st12" d="M139.9,96.6h19.7v19.7h-19.7V96.6z"/>
	<path class="st12" d="M199,96.6h19.7v78.9H199V96.6z"/>
	<path class="st12" d="M199,57.2h19.7v19.7H199V57.2z"/>
	<path class="st12" d="M258.2,155.8h19.7v19.7h-19.7V155.8z"/>
	<path class="st12" d="M258.2,116.3h19.7v19.7h-19.7V116.3z"/>
	<path class="st12" d="M337.1,27.6h19.7V67h-19.7V27.6z"/>
	<path class="st12" d="M396.3,47.3H416V67h-19.7V47.3z"/>
	<path class="st12" d="M445.6,47.3h19.7V67h-19.7V47.3z"/>
	<path class="st12" d="M504.8,57.2h19.7v49.3h-19.7V57.2z"/>
	<path class="st12" d="M504.8,27.6h19.7v19.7h-19.7V27.6z"/>
	<g class="st5">
		<g>
			<g>
				<path class="st3" d="M220.1,535l-7.3-9.7l-24.2,18.1c-2.7,2-3.2,5.8-1.2,8.5c0.3,0.5,0.8,0.9,1.2,1.2l24.2,18.1l7.3-9.7
					l-17.7-13.3L220.1,535z"/>
			</g>
		</g>
		<g>
			<g>
				<path class="st3" d="M293.8,544.7c-0.3-0.5-0.8-0.9-1.2-1.2l-24.2-18.1l-7.3,9.7l17.7,13.3l-17.7,13.3l7.3,9.7l24.2-18.1
					C295.3,551.2,295.8,547.4,293.8,544.7z"/>
			</g>
		</g>
		<g>
			<g>
				
					<rect x="208.1" y="542.3" transform="matrix(0.3715 -0.9284 0.9284 0.3715 -357.8753 568.018)" class="st3" width="65.1" height="12.1"/>
			</g>
		</g>
	</g>
</g>
<g id="Managed_Infrastructure_Services" class="st0">
	<path class="st11" d="M80.2,341.1c0,0-31-134.1,94-133.1c0,0,4.8-44.5,47.4-34.1c0,0,35.3-103.2,154.5-117.4l-8.6-16.1L257.7,75.4
		l-51.2,51.2h-32.3L154.9,137l-19.4,29.4l-19.4,14.2l-48.9,34.1l-18,42.6l5.7,70.6l5.7,15L80.2,341.1z"/>
	<g class="st5">
		<path class="st2" d="M590.6,202.3c-16.8-19.3-39.5-32.5-64.6-37.6c-20.3-74.2-87.9-128.8-168-128.8c-59.2,0-114.4,30.2-146.5,80.3
			c-36-10-73.4,11.2-83.3,47.5c-0.2,0.6-0.3,1.3-0.5,1.9C65.5,180.7,27,243.7,42,306.4c4.1,17.3,12.1,33.4,23.3,47.1l14.9-12.4
			c-34-41.5-28.1-102.8,13.1-137c17.3-14.4,39.1-22.2,61.6-22.2c2.9,0,5.9,0.1,8.8,0.4l1.7-19.4c-3.5-0.3-7-0.5-10.5-0.5
			c-1.9,0-3.8,0-5.7,0.1c8.8-20.6,30.5-32.4,52.5-28.6c-2.4,5-4.7,10.1-6.6,15.3l18.1,6.9c30.2-80.5,119.5-121.1,199.6-90.7
			c60.3,22.9,100.2,80.9,100.2,145.7h19.4c0-8.5-0.6-16.9-1.8-25.3c41.1,12.3,69.4,50.2,69.6,93.4c0,20-6.1,39.6-17.6,56l15.8,11.2
			C629,302.3,625.9,242.8,590.6,202.3L590.6,202.3z"/>
		<ellipse class="st3" cx="125.9" cy="454.4" rx="9.7" ry="9.7"/>
		<ellipse class="st3" cx="154.9" cy="454.4" rx="9.7" ry="9.7"/>
		<ellipse class="st3" cx="183.9" cy="454.4" rx="9.7" ry="9.7"/>
		<rect x="213" y="444.6" class="st3" width="58.1" height="19.5"/>
		<ellipse class="st3" cx="125.9" cy="376.5" rx="9.7" ry="9.7"/>
		<ellipse class="st3" cx="154.9" cy="376.5" rx="9.7" ry="9.7"/>
		<ellipse class="st3" cx="183.9" cy="376.5" rx="9.7" ry="9.7"/>
		<rect x="213" y="366.8" class="st3" width="58.1" height="19.5"/>
		<path class="st2" d="M271,250H125.9c-21.4,0-38.7,17.4-38.7,38.9v19.5c0,11.2,4.8,21.8,13.1,29.2c-8.4,7.4-13.1,18-13.1,29.2v19.5
			c0,11.2,4.8,21.8,13.1,29.2c-8.4,7.4-13.1,18-13.1,29.2v19.5c0,21.5,17.3,38.9,38.7,38.9H271c21.4,0,38.7-17.4,38.7-38.9v-19.5
			c0-11.2-4.8-21.8-13.1-29.2c8.4-7.4,13.1-18,13.1-29.2v-19.5c0-11.2-4.8-21.8-13.1-29.2c8.4-7.4,13.1-18,13.1-29.2V289
			C309.7,267.5,292.4,250.1,271,250z M290.4,444.6v19.5c0,10.7-8.7,19.4-19.4,19.5H125.9c-10.7,0-19.3-8.7-19.4-19.5v-19.5
			c0-10.7,8.7-19.4,19.4-19.5H271C281.7,425.2,290.4,433.9,290.4,444.6z M290.4,366.8v19.5c0,10.7-8.7,19.4-19.4,19.5H125.9
			c-10.7,0-19.3-8.7-19.4-19.5v-19.5c0-10.7,8.7-19.4,19.4-19.5H271C281.7,347.3,290.4,356.1,290.4,366.8z M125.9,327.9
			c-10.7,0-19.3-8.7-19.4-19.5V289c0-10.7,8.7-19.4,19.4-19.5H271c10.7,0,19.3,8.7,19.4,19.5v19.5c0,10.7-8.7,19.4-19.4,19.5H125.9z
			"/>
		<ellipse class="st3" cx="125.9" cy="298.7" rx="9.7" ry="9.7"/>
		<ellipse class="st3" cx="154.9" cy="298.7" rx="9.7" ry="9.7"/>
		<ellipse class="st3" cx="183.9" cy="298.7" rx="9.7" ry="9.7"/>
		<rect x="213" y="289" class="st3" width="58.1" height="19.5"/>
		<path class="st3" d="M532.3,298.7h-77.4c-21.4,0-38.7,17.4-38.7,38.9V396c0,21.5,17.3,38.9,38.7,38.9h77.4
			c21.4,0,38.7-17.4,38.7-38.9v-58.4C571,316.1,553.6,298.7,532.3,298.7z M551.6,337.6v5.2c-5.9-3.4-12.6-5.2-19.4-5.2h-20.8
			c-7.3,0-14.1-4.1-17.3-10.8l-3.3-6.7c-0.3-0.7-0.7-1.4-1.1-2.1h42.5C543,318.2,551.6,326.9,551.6,337.6z M551.6,396
			c0,10.7-8.7,19.4-19.4,19.5h-77.4c-10.7,0-19.3-8.7-19.4-19.5v-58.4c0-10.7,8.7-19.4,19.4-19.5h1.4c7.3,0,14.1,4.1,17.3,10.8
			l3.3,6.7c6.5,13.2,19.9,21.6,34.6,21.5h20.8c10.7,0,19.3,8.7,19.4,19.5V396z"/>
		<path class="st3" d="M532.3,483.6h-77.4c-21.4,0-38.7,17.4-38.7,38.9v58.4c0,21.5,17.3,38.9,38.7,38.9h77.4
			c21.4,0,38.7-17.4,38.7-38.9v-58.4C571,501,553.6,483.6,532.3,483.6z M551.6,522.5v5.2c-5.9-3.4-12.6-5.2-19.4-5.2h-20.8
			c-7.3,0-14.1-4.1-17.3-10.8l-3.3-6.7c-0.3-0.7-0.7-1.4-1.1-2.1h42.5C543,503,551.6,511.7,551.6,522.5z M551.6,580.9
			c0,10.7-8.7,19.4-19.4,19.5h-77.4c-10.7,0-19.3-8.7-19.4-19.5v-58.4c0-10.7,8.7-19.4,19.4-19.5h1.4c7.3,0,14.1,4.1,17.3,10.8
			l3.3,6.7c6.5,13.2,19.9,21.6,34.6,21.5h20.8c10.7,0,19.3,8.7,19.4,19.5V580.9z"/>
		<path class="st2" d="M319.4,357.1v19.5h29v184.9c0,5.4,4.3,9.7,9.7,9.7h38.7v-19.5h-29V376.5h29v-19.5H319.4z"/>
	</g>
</g>
<g id="mobile_dev" class="st0">
	<rect x="45.1" y="47.5" class="st11" width="50.2" height="561.6"/>
	<path class="st12" d="M438.2,609.1h60.2v20.1h-60.2V609.1z"/>
	<path class="st12" d="M478.3,528.9h-20.1V549h-20.1V569h20.1v20.1h20.1V569h20.1V549h-20.1V528.9z"/>
	<path class="st12" d="M337.9,569H117.2c-5.5,0-10,4.5-10,10c0,5.5,4.5,10,10,10h220.6c5.5,0,10-4.5,10-10
		C347.9,573.5,343.4,569,337.9,569z"/>
	<path class="st12" d="M177.4,318.3h20.1v20.1h-20.1V318.3z"/>
	<path class="st12" d="M182.8,378.3l19.4-5.2l5.2,19.4l-19.4,5.2L182.8,378.3z"/>
	<path class="st12" d="M203.3,435l17.4-10l10,17.4l-17.4,10L203.3,435z"/>
	<path class="st12" d="M237.8,484.3l14.2-14.2l14.2,14.2L252,498.5L237.8,484.3z"/>
	<path class="st12" d="M284,523.1l10-17.4l17.4,10l-10,17.4L284,523.1z"/>
	<path class="st12" d="M182.7,278.3l5.2-19.4l19.4,5.2l-5.2,19.4L182.7,278.3z"/>
	<path class="st12" d="M203.3,221.7l10-17.4l17.4,10l-10,17.4L203.3,221.7z"/>
	<path class="st12" d="M237.8,172.3l14.2-14.2l14.2,14.2L252,186.5L237.8,172.3z"/>
	<path class="st12" d="M284.1,133.6l17.4-10l10,17.4l-17.4,10L284.1,133.6z"/>
	<path class="st13" d="M508.4,127.7c5.5,0,10,4.5,10,10c0,5.5,4.5,10,10,10s10-4.5,10-10c0-16.6-13.5-30.1-30.1-30.1
		c-5.5,0-10,4.5-10,10S502.8,127.7,508.4,127.7z"/>
	<path class="st13" d="M508.4,27.4c-5.5,0-10,4.5-10,10s4.5,10,10,10c49.8,0.1,90.2,40.4,90.3,90.3c0,5.5,4.5,10,10,10
		c5.5,0,10-4.5,10-10C618.6,76.9,569.3,27.5,508.4,27.4z"/>
	<path class="st13" d="M508.4,87.6c27.7,0,50.1,22.5,50.1,50.1c0,5.5,4.5,10,10,10s10-4.5,10-10c0-38.8-31.4-70.2-70.2-70.2
		c-5.5,0-10,4.5-10,10C498.3,83.1,502.8,87.6,508.4,87.6z"/>
	<path class="st12" d="M307.8,228c-16.6,0-30.1,13.5-30.1,30.1v140.4c0,16.6,13.5,30.1,30.1,30.1h200.6c16.6,0,30.1-13.5,30.1-30.1
		V258.1c0-16.6-13.5-30.1-30.1-30.1H307.8z M518.4,398.5c0,5.5-4.5,10-10,10H307.8c-5.5,0-10-4.5-10-10V288.2h220.6V398.5z
		 M518.4,258.1v10H297.8v-10c0-5.5,4.5-10,10-10h200.6C513.9,248.1,518.4,252.6,518.4,258.1z"/>
	<path class="st12" d="M361.9,386.5c4.4,3.3,10.7,2.4,14-2c3.3-4.4,2.4-10.7-2-14c0,0,0,0,0,0l-29.4-22.1l29.4-22.1
		c4.4-3.3,5.3-9.6,2-14c-3.3-4.4-9.6-5.3-14-2l0,0l-40.1,30.1c-4.4,3.3-5.3,9.6-2,14c0.6,0.8,1.2,1.4,2,2L361.9,386.5z"/>
	<path class="st12" d="M440.2,384.5c3.3,4.4,9.6,5.3,14,2l0,0l40.1-30.1c4.4-3.3,5.3-9.6,2-14c-0.6-0.8-1.2-1.4-2-2l-40.1-30.1
		c-4.4-3.3-10.7-2.4-14,2c-3.3,4.4-2.4,10.7,2,14l29.4,22.1l-29.4,22.1C437.7,373.8,436.8,380.1,440.2,384.5L440.2,384.5
		L440.2,384.5z"/>
	<path class="st12" d="M395.6,398.2c0.8,0.2,1.6,0.3,2.4,0.3c4.6,0,8.6-3.1,9.7-7.6l20.1-80.2c1.3-5.4-2-10.8-7.4-12.1
		c-5.3-1.3-10.7,1.9-12.1,7.2l-20.1,80.2C387,391.4,390.2,396.9,395.6,398.2C395.6,398.2,395.6,398.2,395.6,398.2L395.6,398.2z"/>
	<path class="st13" d="M418.1,138.3V77.6c0-27.7-22.5-50.1-50.1-50.1H87.1C59.5,27.5,37,49.9,37,77.6V579
		c0,27.7,22.5,50.1,50.1,50.1H368c27.7,0,50.1-22.5,50.1-50.1v-60.7c105-5.3,185.8-94.7,180.5-199.6
		C593.7,221.2,515.7,143.2,418.1,138.3L418.1,138.3z M127.3,47.5h200.6v30.1c0,5.5-4.5,10-10,10H137.3c-5.5,0-10-4.5-10-10V47.5z
		 M368,609.1H87.1c-16.6,0-30.1-13.5-30.1-30.1V77.6c0-16.6,13.5-30.1,30.1-30.1h20.1v30.1c0,16.6,13.5,30.1,30.1,30.1h180.5
		c16.6,0,30.1-13.5,30.1-30.1V47.5H368c16.6,0,30.1,13.5,30.1,30.1v60.7c-105,5.3-185.8,94.7-180.5,199.6
		c4.9,97.6,82.9,175.6,180.5,180.5V579C398,595.7,384.6,609.1,368,609.1L368,609.1L368,609.1z M408.1,498.8
		c-94.2,0-170.5-76.3-170.5-170.5s76.3-170.5,170.5-170.5s170.5,76.3,170.5,170.5C578.5,422.4,502.2,498.7,408.1,498.8z"/>
</g>
<g id="product_eng" class="st0">
	<path class="st11" d="M125.1,148.1h-37c-21.4-0.1-38.9,20.8-38.9,46.7c0,0.2,0,0.4,0,0.6v246h36.9v-246
		c-0.2-25.9,17.1-47,38.5-47.2C124.7,148.1,124.9,148.1,125.1,148.1z"/>
	<path class="st11" d="M86.1,492.7v-37.6H49.2v37.6c0,26.2,17.2,48.2,38.9,48.2h37C103.3,540.9,86.1,518.9,86.1,492.7z"/>
	<path class="st13" d="M38.3,170v346c0,9,3.5,17.7,9.9,24.1c6.4,6.4,15.1,9.9,24.1,9.8h163L217.1,617h-37.2
		c-5.7,0-10.3,4.6-10.3,10.3s4.6,10.3,10.3,10.3h295.3c5.7,0,10.3-4.6,10.3-10.3s-4.6-10.3-10.3-10.3H438l-18.3-67.1h163
		c9,0.1,17.7-3.5,24.1-9.8c6.4-6.4,10-15,9.9-24.1V170c0-18.9-15.1-34.6-34-34.6h-84.4c-0.5-1.8-1.3-3.6-2.5-5L400.4,24.1
		c-1.9-2.2-4.7-3.6-7.7-3.6H202.6c-25.4,0-45.6,21.2-45.6,46.6v68.3H72.3C53.4,135.4,38.3,151.1,38.3,170z M416.6,617H238.5
		l18.3-67.1h141.5L416.6,617z M582.7,529.2H72.3c-3.6,0.1-7-1.3-9.5-3.8c-2.5-2.5-3.9-5.9-3.9-9.5v-57.8h537.1V516
		c0,3.6-1.4,7-3.9,9.5C589.7,528,586.3,529.3,582.7,529.2z M403.7,58.3l54.3,61.6h-47.4c-4.2,0-6.9-3.9-6.9-8.1V58.3z M596.1,170
		v267.5H498V156.1h84.7C590.3,156.2,596.3,162.5,596.1,170z M202.6,41.2H383v70.7c0,15.5,12,28.8,27.6,28.8h66l0.7,0.8v296.1H177.7
		V67.1C177.7,53.1,188.6,41.2,202.6,41.2z M157.1,437.6H59V170c-0.2-7.5,5.8-13.8,13.4-14h84.7V437.6z"/>
	<path class="st12" d="M229.8,339.1l94.7,30.6c1,0.3,2,0.5,3.1,0.5c1.1,0,2.1-0.2,3.1-0.5l94.5-30.6c4.2-1.4,7-5.4,6.9-9.8V199.8
		c0.1-4.4-2.7-8.4-6.9-9.8l-94.7-30.6c-2-0.7-4.2-0.7-6.3,0L229.8,190c-4.2,1.4-7,5.4-6.9,9.8v129.4
		C222.8,333.7,225.6,337.7,229.8,339.1z M243.6,214l72.3,23.5v107.7l-72.3-23.5V214z M336.6,346V238.4l74.9-24.3v107.7L336.6,346z
		 M327.5,180.1l61.1,19.7l-61.1,19.7l-61.1-19.7L327.5,180.1z"/>
	<circle class="st12" cx="464.5" cy="496.6" r="14.8"/>
	<circle class="st12" cx="504.5" cy="496.6" r="14.8"/>
	<circle class="st12" cx="545.5" cy="496.6" r="14.8"/>
</g>
<g id="Layer_15" class="st0">
	<path class="st11" d="M118.1,32.6H74.5c-25.3-0.1-45.9,24.5-46,55.1c0,0.2,0,0.4,0,0.7V409h43.6V88.4
		c-0.2-30.6,20.2-55.5,45.5-55.8C117.8,32.6,118,32.6,118.1,32.6z"/>
	<path class="st11" d="M72.1,439.6v-44.4H28.5v44.4c0,31,20.3,56.9,46,56.9h43.6C92.5,496.6,72.1,470.6,72.1,439.6z"/>
	<g id="Page-1" class="st5">
		<g>
			<path id="Shape" class="st2" d="M565.3,259.9c5.7,0,10.3-4.6,10.3-10.3V54.1c0-17-13.8-30.9-30.9-30.9H50.9
				c-17,0-30.9,13.8-30.9,30.9v411.6c0,17,13.8,30.9,30.9,30.9h185.2c5.7,0,10.3-4.6,10.3-10.3c0-5.7-4.6-10.3-10.3-10.3H50.9
				c-5.7,0-10.3-4.6-10.3-10.3V126.1h514.5v123.5C555.1,255.3,559.7,259.9,565.3,259.9z M40.6,105.6V54.1c0-5.7,4.6-10.3,10.3-10.3
				h493.9c5.7,0,10.3,4.6,10.3,10.3v51.4H40.6z"/>
			<circle id="Oval" class="st3" cx="111.4" cy="74.7" r="10.3"/>
			<circle class="st3" cx="152.6" cy="74.7" r="10.3"/>
			<circle class="st3" cx="193.8" cy="74.7" r="10.3"/>
			<path class="st3" d="M379,64.4h-72c-5.7,0-10.3,4.6-10.3,10.3S301.3,85,306.9,85h72c5.7,0,10.3-4.6,10.3-10.3
				S384.7,64.4,379,64.4z"/>
			<path class="st3" d="M91.4,177.6H112c5.7,0,10.3-4.6,10.3-10.3S117.7,157,112,157H91.4c-5.7,0-10.3,4.6-10.3,10.3
				S85.8,177.6,91.4,177.6z"/>
			<path class="st3" d="M245.8,157h-92.6c-5.7,0-10.3,4.6-10.3,10.3s4.6,10.3,10.3,10.3h92.6c5.7,0,10.3-4.6,10.3-10.3
				S251.5,157,245.8,157z"/>
			<path class="st3" d="M379.6,167.3c0-5.7-4.6-10.3-10.3-10.3h-82.3c-5.7,0-10.3,4.6-10.3,10.3s4.6,10.3,10.3,10.3h82.3
				C374.9,177.6,379.6,173,379.6,167.3z"/>
			<path class="st3" d="M235.5,218.8c5.7,0,10.3-4.6,10.3-10.3s-4.6-10.3-10.3-10.3h-20.6c-5.7,0-10.3,4.6-10.3,10.3
				s4.6,10.3,10.3,10.3H235.5z"/>
			<path class="st3" d="M276.7,198.2c-5.7,0-10.3,4.6-10.3,10.3s4.6,10.3,10.3,10.3h20.6c5.7,0,10.3-4.6,10.3-10.3
				s-4.6-10.3-10.3-10.3H276.7z"/>
			<path class="st3" d="M91.4,218.8h82.3c5.7,0,10.3-4.6,10.3-10.3s-4.6-10.3-10.3-10.3H91.4c-5.7,0-10.3,4.6-10.3,10.3
				S85.8,218.8,91.4,218.8z"/>
			<path class="st3" d="M82.2,315.6c0,10,8.1,18.2,18.2,18.2h118c10,0,18.2-8.1,18.2-18.2v-27.2c0-10-8.1-18.2-18.2-18.2h-118
				c-10,0-18.2,8.1-18.2,18.2V315.6z M100.3,288.4h118v27.2h-118V288.4z"/>
			<path class="st3" d="M472.3,361.5l36.5-37.3c4.7-4.8,6.3-11.8,4.1-18.2c-2-6.3-7.4-10.8-14-11.8l-49.9-7.6l-22.3-47.5
				c-2.8-6.2-9-10.1-15.8-10.1s-12.9,3.9-15.8,10.1l-22.3,47.5l-49.9,7.6c-6.5,1-11.9,5.6-14,11.8c-2.2,6.4-0.6,13.4,4.1,18.2
				l36.5,37.3l-8.6,52.7c-1.2,6.7,1.7,13.6,7.3,17.5c5.4,3.8,12.5,4.2,18.3,1l44.4-24.5l44.4,24.5c5.8,3.2,12.9,2.8,18.3-1
				c5.6-3.9,8.4-10.7,7.3-17.5L472.3,361.5z M451.8,363.6l7.8,48l-40.3-22.2c-5.2-2.9-11.5-2.9-16.7,0l-40.3,22.2l7.8-48
				c0.9-5.6-0.9-11.3-4.8-15.4l-33.7-34.4l46-7c5.8-0.9,10.7-4.6,13.2-9.9l20.1-42.8l20.1,42.8c2.5,5.3,7.4,9,13.2,9.9l46,7
				l-33.7,34.4C452.7,352.2,450.9,357.9,451.8,363.6L451.8,363.6z"/>
			<path class="st2" d="M631.6,559.3c-92-44.3-92.8-118.2-92.1-131.6c42.9-64.4,31.5-150.7-26.7-201.7s-145.2-51-203.4,0
				s-69.6,137.3-26.7,201.7c0.5,13.1-0.8,87.6-92.1,131.7c-3.6,1.8-5.9,5.5-5.8,9.5c0.1,4,2.6,7.7,6.3,9.2c1.9,0.8,38.8,16,70.4,7.2
				c1.3,19.7,9.8,38.3,23.8,52.2l0.2,0.2c3,3,7.6,3.9,11.5,2.1c3.9-1.8,6.3-5.8,6-10c4-17.1,12.9-32.7,25.5-44.8
				c4.5-3.9,9.2-7.5,13.9-11.1c13-9,24.5-20,34.2-32.5c9.5-13.7,16.4-29.1,20.2-45.4c4.7,0.4,9.4,0.7,14.3,0.7s9.6-0.3,14.3-0.7
				c3.8,16.3,10.6,31.7,20.2,45.4c9.7,12.5,21.2,23.4,34.2,32.4c4.7,3.6,9.4,7.2,13.9,11.1c12.7,12.2,21.5,27.8,25.5,44.9
				c-0.3,4.3,2.1,8.3,6,10c3.9,1.8,8.5,0.9,11.5-2.1l0.2-0.2c14-13.9,22.5-32.5,23.8-52.2c31.7,8.9,68.6-6.4,70.4-7.2
				c3.7-1.6,6.2-5.2,6.3-9.2C637.5,564.8,635.2,561,631.6,559.3L631.6,559.3z M359.8,529.3c-8.5,10.8-18.7,20.3-30,28.2
				c-5,3.8-9.9,7.7-14.7,11.8c-11.6,10.5-20.7,23.6-26.5,38.2c-6.2-10.8-8.2-23.5-5.6-35.7c1.3-4.2-0.2-8.8-3.7-11.4
				s-8.4-2.7-12-0.1c-13.9,7.7-30.2,9.6-45.5,5.5c58.7-36.4,75.4-84.8,79.9-114.7c20.5,20.6,46.5,35,74.8,41.5
				C373.2,505.7,367.5,518.2,359.8,529.3L359.8,529.3z M277.2,342.2c0-73.9,59.9-133.8,133.8-133.8s133.8,59.9,133.8,133.8
				S484.9,476,411,476C337.2,475.9,277.3,416.1,277.2,342.2L277.2,342.2z M521.9,623.3l-0.1,0.1L521.9,623.3L521.9,623.3z
				 M554.8,560.2c-3.6-2.5-8.4-2.5-12,0.1c-3.6,2.6-5.1,7.2-3.7,11.4c2.7,12.2,0.6,25-5.6,35.7c-5.8-14.6-14.9-27.7-26.5-38.2
				c-4.8-4.1-9.7-7.9-14.7-11.8c-11.3-7.9-21.5-17.4-30-28.2c-7.7-11.1-13.4-23.6-16.6-36.7c28.4-6.5,54.3-20.9,74.8-41.5
				c4.5,29.9,21.2,78.2,79.9,114.7C585,569.8,568.7,567.8,554.8,560.2L554.8,560.2z"/>
		</g>
	</g>
</g>
<g id="AWS_Cloud">
	<g>
		<path class="st4" d="M158.4,498.6c-1.2,0-2.3-0.2-3.4-0.7c-60.2-6.4-105.9-34.3-105.9-95c0-65.5,53-118.6,118.4-118.6
			c22.5-54,78.4-100.6,135-86.8l9.5-7.1c-63.9-15.8-129.7,17.4-155,78.1c-73.5,0-133.2,59.6-133.2,133.2
			c0,68.1,49.2,105.6,116.9,112.8c1.2,0.5,9.4,0.7,10.7,0.7l59.5,1L214,501L158.4,498.6z"/>
		<g>
			<path class="st2" d="M457.2,519.8H512c1.2,0,2.5-0.2,3.6-0.7c78.8-7.7,136.5-77.8,128.9-156.7c-4.9-50.8-36.4-95.1-82.8-116.4v0
				C557.9,170.4,495,110,418.5,110c-48.6,0.1-93.8,24.7-120.3,65.4c-63.9-15.8-129.7,17.4-155,78.1C69.7,253.4,10,313.1,10,386.6
				c0,68.1,51.4,125.2,119.1,132.4c1.2,0.5,2.5,0.7,3.8,0.7H198 M194.8,499.3h-58.9c-0.7-0.2-1.4-0.3-2.1-0.4
				c-62-5.1-108.1-59.6-103-121.6c4.8-58.5,53.7-103.4,112.4-103.4c2,0,4.1,0.1,6.4,0.2c4.6,0.3,8.7-2.5,10.2-6.8
				c20.2-57.3,82.1-88.3,140-70.2c4.6,1.4,9.6-0.5,11.9-4.7c33.7-58.9,108.8-79.4,167.7-45.7c38.1,21.8,61.7,62.3,61.9,106.2
				c0,4.2,2.5,7.9,6.4,9.5c62.9,25.5,93.3,97.1,67.9,160.1c-5.6,13.9-13.7,26.7-24,37.6c-21,22.6-49.8,36.5-80.5,38.8
				c-0.7,0.1-1.3,0.2-2,0.4h-48.8"/>
		</g>
		<g>
			<path class="st3" d="M429.7,141.4c-8.1,0.3-16.1,1.3-24,3l4.7,21.3c6.6-1.5,13.3-2.3,20-2.5L429.7,141.4z"/>
			<path class="st3" d="M394.5,170.6l-7.9-20.3c-21.6,8.4-40.5,22.4-55,40.6l17.1,13.5C360.7,189.3,376.5,177.7,394.5,170.6z"/>
		</g>
	</g>
	<g>
		<path class="st14" d="M287.7,339.9c0,3.7,0.4,6.6,1.1,8.8c0.8,2.2,1.8,4.5,3.2,7.1c0.5,0.8,0.7,1.6,0.7,2.3c0,1-0.6,2-1.9,3
			l-6.2,4.2c-0.9,0.6-1.8,0.9-2.6,0.9c-1,0-2-0.5-3-1.4c-1.4-1.5-2.6-3.1-3.6-4.6c-1-1.7-2-3.6-3.1-5.8
			c-7.7,9.1-17.4,13.6-29.1,13.6c-8.3,0-14.9-2.4-19.8-7.1c-4.8-4.7-7.3-11.1-7.3-19c0-8.4,3-15.2,9-20.4c6-5.1,14-7.7,24.2-7.7
			c3.4,0,6.8,0.3,10.5,0.8s7.4,1.3,11.4,2.2v-7.2c0-7.5-1.6-12.8-4.6-15.8c-3.2-3.1-8.5-4.5-16.1-4.5c-3.5,0-7,0.4-10.7,1.3
			c-3.7,0.9-7.2,2-10.7,3.4c-1.6,0.7-2.8,1.1-3.5,1.3c-0.7,0.2-1.2,0.3-1.6,0.3c-1.4,0-2.1-1-2.1-3.1v-4.8c0-1.6,0.2-2.8,0.7-3.5
			c0.5-0.7,1.4-1.4,2.8-2.1c3.5-1.8,7.6-3.3,12.5-4.4c4.8-1.3,10-1.9,15.4-1.9c11.8,0,20.4,2.7,25.9,8c5.4,5.3,8.2,13.4,8.2,24.3v32
			H287.7z M247.6,355c3.3,0,6.6-0.6,10.2-1.8c3.6-1.2,6.7-3.4,9.4-6.3c1.6-1.9,2.8-4,3.4-6.3c0.6-2.4,1-5.2,1-8.6v-4.2
			c-2.9-0.7-5.9-1.3-9.1-1.7c-3.2-0.4-6.2-0.6-9.3-0.6c-6.6,0-11.5,1.3-14.7,4c-3.3,2.7-4.8,6.4-4.8,11.4c0,4.6,1.2,8.1,3.7,10.5
			C239.6,353.8,243,355,247.6,355z M327,365.6c-1.8,0-3-0.3-3.8-1c-0.8-0.6-1.5-2-2.1-3.9l-23.2-76.4c-0.6-2-0.9-3.3-0.9-4
			c0-1.6,0.8-2.5,2.4-2.5h9.7c1.9,0,3.2,0.3,3.9,1c0.8,0.6,1.4,2,2,3.9l16.6,65.4l15.4-65.4c0.5-2,1.1-3.3,1.9-3.9
			c0.8-0.6,2.2-1,4-1h7.9c1.9,0,3.2,0.3,4,1c0.8,0.6,1.5,2,1.9,3.9l15.6,66.2l17.1-66.2c0.6-2,1.3-3.3,2-3.9c0.8-0.6,2.1-1,3.9-1
			h9.2c1.6,0,2.5,0.8,2.5,2.5c0,0.5-0.1,1-0.2,1.6c-0.1,0.6-0.3,1.4-0.7,2.5L392,360.9c-0.6,2-1.3,3.3-2.1,3.9c-0.8,0.6-2.1,1-3.8,1
			h-8.5c-1.9,0-3.2-0.3-4-1s-1.5-2-1.9-4L356.5,297l-15.2,63.7c-0.5,2-1.1,3.3-1.9,4c-0.8,0.7-2.2,1-4,1H327z M454,368.3
			c-5.1,0-10.3-0.6-15.2-1.8c-4.9-1.2-8.8-2.5-11.4-4c-1.6-0.9-2.7-1.9-3.1-2.8c-0.4-0.9-0.6-1.9-0.6-2.8v-5c0-2.1,0.8-3.1,2.3-3.1
			c0.6,0,1.2,0.1,1.8,0.3c0.6,0.2,1.5,0.6,2.5,1c3.4,1.5,7,2.7,10.9,3.5c4,0.8,7.8,1.2,11.8,1.2c6.2,0,11.1-1.1,14.4-3.3
			c3.4-2.2,5.1-5.3,5.1-9.4c0-2.8-0.9-5-2.7-6.9c-1.8-1.9-5.1-3.6-10-5.1l-14.3-4.4c-7.2-2.3-12.6-5.6-15.8-10.1
			c-3.3-4.4-4.9-9.2-4.9-14.3c0-4.2,0.9-7.8,2.7-11c1.8-3.2,4.2-5.9,7.1-8.1c3-2.3,6.3-4,10.3-5.1c4-1.2,8.1-1.7,12.5-1.7
			c2.2,0,4.4,0.1,6.6,0.4c2.3,0.3,4.4,0.7,6.4,1.1c2,0.5,3.9,1,5.6,1.6c1.8,0.6,3.2,1.2,4.2,1.8c1.4,0.8,2.4,1.6,3,2.5
			c0.6,0.8,0.9,1.9,0.9,3.3v4.6c0,2.1-0.8,3.2-2.3,3.2c-0.8,0-2.1-0.4-3.8-1.2c-5.6-2.6-12-3.9-19-3.9c-5.6,0-10.1,0.9-13.1,2.8
			c-3.1,1.9-4.6,4.7-4.6,8.8c0,2.8,1,5.1,3,7c2,1.9,5.6,3.8,10.9,5.4l14,4.4c7.1,2.3,12.3,5.4,15.3,9.5s4.5,8.7,4.5,13.8
			c0,4.3-0.9,8.1-2.6,11.5c-1.8,3.4-4.2,6.3-7.2,8.7c-3.1,2.5-6.7,4.3-11,5.5C463.7,367.6,459.1,368.3,454,368.3z"/>
		<path class="st15" d="M472.7,416.4c-32.5,24-79.8,36.8-120.4,36.8c-56.9,0-108.3-21.1-147-56.1c-3.1-2.8-0.3-6.5,3.4-4.4
			c41.9,24.3,93.6,39.1,147.1,39.1c36.1,0,75.7-7.5,112.2-22.9C473.4,406.4,478,412.4,472.7,416.4z M486.2,400.9
			c-4.2-5.3-27.5-2.6-38.1-1.3c-3.2,0.4-3.7-2.4-0.8-4.4c18.6-13.1,49.1-9.3,52.7-4.9c3.6,4.4-1,35-18.4,49.6
			c-2.7,2.3-5.2,1.1-4.1-1.9C481.6,428.2,490.4,406.2,486.2,400.9z"/>
	</g>
</g>
</svg>
